<?xml version="1.0" encoding="utf-8"?>
<!-- Generator: Adobe Illustrator 27.2.0, SVG Export Plug-In . SVG Version: 6.00 Build 0)  -->
<svg version="1.1" id="Layer_1" xmlns="http://www.w3.org/2000/svg" xmlns:xlink="http://www.w3.org/1999/xlink" x="0px" y="0px"
	 viewBox="0 0 867.13 403.83" style="enable-background:new 0 0 867.13 403.83;" xml:space="preserve">
<style type="text/css">
	.st0{fill:#41565B;}
	.st1{fill:url(#SVGID_1_);}
	.st2{fill:url(#SVGID_00000155133016922428559330000001397719456361905290_);}
	.st3{fill:url(#SVGID_00000014598162602563170300000012007183334440463234_);}
	.st4{fill:url(#SVGID_00000103957752716569989020000013678664845142868153_);}
	.st5{fill:#FFFFFF;stroke:#D268CC;stroke-width:26;stroke-miterlimit:10;}
	.st6{fill:#FFFFFF;}
	.st7{opacity:0.14;enable-background:new    ;}
	.st8{fill:url(#SVGID_00000092445305213126807850000002654780430404923298_);}
	.st9{display:none;}
	.st10{display:inline;opacity:0.6;fill:#1B4651;enable-background:new    ;}
</style>
<g id="Layer_4">
</g>
<g id="Layer_2_00000011741539553479540640000007879378772344348059_">
	<g>
		<g>
			<path class="st0" d="M429.52,230.92c-1.99-3.32-7.46-6.46-13.76-6.46c-8.12,0-12.02,3.4-12.02,7.71c0,5.05,5.97,6.46,12.93,7.29
				c12.1,1.49,23.37,4.64,23.37,18.48c0,12.93-11.44,18.48-24.36,18.48c-11.85,0-20.97-3.65-25.28-14.25l9.12-4.72
				c2.57,6.38,9.28,9.2,16.33,9.2c6.88,0,13.34-2.4,13.34-8.7c0-5.47-5.72-7.71-13.43-8.54c-11.85-1.41-22.79-4.56-22.79-17.57
				c0-11.93,11.77-16.82,22.46-16.91c9.03,0,18.4,2.57,22.79,11.52L429.52,230.92z"/>
			<path class="st0" d="M448.59,292v-57.93h9.45l0.66,5.64c3.15-4.56,8.62-6.55,13.26-6.55c12.6,0,20.97,9.36,20.97,21.38
				c0,11.93-7.54,21.38-20.63,21.38c-4.31,0-10.69-1.33-13.59-5.8V292H448.59z M482.81,254.54c0-6.38-4.31-11.6-11.6-11.6
				s-11.6,5.22-11.6,11.6c0,6.38,4.72,11.6,11.6,11.6C478.09,266.14,482.81,260.92,482.81,254.54z"/>
			<path class="st0" d="M532.79,234.07h9.7v40.86h-9.53l-0.5-5.97c-2.32,4.81-8.7,7.13-13.26,7.21
				c-12.1,0.08-21.05-7.38-21.05-21.71c0-14.09,9.36-21.46,21.3-21.38c5.47,0,10.69,2.57,13.01,6.63L532.79,234.07z M508.26,254.46
				c0,7.79,5.39,12.43,12.1,12.43c15.91,0,15.91-24.78,0-24.78C513.64,242.11,508.26,246.67,508.26,254.46z"/>
			<path class="st0" d="M586.99,269.71c-4.72,4.64-9.7,6.46-15.75,6.46c-11.85,0-21.71-7.13-21.71-21.63s9.86-21.63,21.71-21.63
				c5.8,0,10.28,1.66,14.75,6.05l-6.38,6.71c-2.4-2.16-5.39-3.23-8.2-3.23c-6.79,0-11.77,4.97-11.77,12.1
				c0,7.79,5.3,11.93,11.6,11.93c3.23,0,6.46-0.91,8.95-3.4L586.99,269.71z"/>
			<path class="st0" d="M601.74,258.11c0.66,5.05,5.05,8.7,12.18,8.7c3.73,0,8.62-1.41,10.94-3.81l6.46,6.38
				c-4.31,4.48-11.35,6.63-17.57,6.63c-14.09,0-22.46-8.7-22.46-21.79c0-12.43,8.45-21.38,21.71-21.38
				c13.67,0,22.21,8.45,20.63,25.28h-31.89V258.11z M623.95,249.74c-0.66-5.3-4.81-7.96-10.61-7.96c-5.47,0-9.94,2.65-11.44,7.96
				H623.95z"/>
		</g>
	</g>
	<g>
		<g>
			<path class="st0" d="M421.63,180.18c0.25,14.67-8.7,29.5-29,29.5c-7.13,0-15.66,0-22.79,0v-58.01c7.13,0,15.66,0,22.79,0
				C412.51,151.67,421.38,165.84,421.63,180.18z M380.69,199.16h11.93c13.18,0,18.4-9.61,18.15-19.06
				c-0.25-9.03-5.55-18.07-18.15-18.07h-11.93V199.16z"/>
			<path class="st0" d="M439.12,157.31c0,7.87-11.93,7.87-11.93,0S439.12,149.43,439.12,157.31z M428.09,168.66v41.02h10.11v-41.02
				H428.09z"/>
			<path class="st0" d="M474.01,179.68c-2.9-2.73-6.21-3.65-10.11-3.65c-4.81,0-7.46,1.49-7.46,4.06c0,2.65,2.4,4.14,7.62,4.48
				c7.71,0.5,17.49,2.24,17.49,13.09c0,7.21-5.88,13.43-17.57,13.43c-6.46,0-12.93-1.08-18.89-7.29l4.97-7.21
				c2.9,3.23,9.53,5.64,14.09,5.72c3.81,0.08,7.38-1.91,7.38-4.89c0-2.82-2.32-3.98-8.12-4.31c-7.71-0.58-16.91-3.4-16.91-12.68
				c0-9.45,9.78-12.76,17.24-12.76c6.38,0,11.19,1.24,15.91,5.39L474.01,179.68z"/>
			<path class="st0" d="M523.07,204.46c-4.72,4.64-9.7,6.46-15.75,6.46c-11.85,0-21.71-7.13-21.71-21.63s9.86-21.63,21.71-21.63
				c5.8,0,10.28,1.66,14.75,6.05l-6.38,6.71c-2.4-2.16-5.39-3.23-8.2-3.23c-6.8,0-11.77,4.97-11.77,12.1
				c0,7.79,5.3,11.93,11.6,11.93c3.23,0,6.46-0.91,8.95-3.4L523.07,204.46z"/>
			<path class="st0" d="M568.98,189.29c0,11.77-8.04,21.3-21.3,21.3s-21.21-9.53-21.21-21.3c0-11.69,8.12-21.3,21.13-21.3
				C560.61,168,568.98,177.61,568.98,189.29z M536.58,189.29c0,6.21,3.73,12.02,11.1,12.02c7.38,0,11.11-5.8,11.11-12.02
				c0-6.13-4.31-12.1-11.11-12.1C540.39,177.19,536.58,183.16,536.58,189.29z"/>
			<path class="st0" d="M617.46,168.74l-17.4,41.1h-10.94l-17.49-41.1h11.02l5.64,13.51l6.3,17.24l6.22-17.07l5.63-13.67
				L617.46,168.74L617.46,168.74z"/>
			<path class="st0" d="M630.98,192.86c0.66,5.05,5.05,8.7,12.18,8.7c3.73,0,8.62-1.41,10.94-3.81l6.46,6.38
				c-4.31,4.48-11.35,6.63-17.57,6.63c-14.09,0-22.46-8.7-22.46-21.79c0-12.43,8.45-21.38,21.71-21.38
				c13.67,0,22.21,8.45,20.63,25.28L630.98,192.86L630.98,192.86z M653.18,184.49c-0.66-5.3-4.81-7.96-10.61-7.96
				c-5.47,0-9.94,2.65-11.44,7.96H653.18z"/>
			<path class="st0" d="M680.04,168.82l0.75,4.72c3.15-5.05,7.38-5.8,11.52-5.8c4.23,0,8.29,1.66,10.53,3.9l-4.56,8.78
				c-2.07-1.74-3.98-2.65-7.29-2.65c-5.3,0-10.19,2.82-10.19,10.36v21.55h-10.11v-40.86H680.04z"/>
			<path class="st0" d="M750.4,168.82l-24.94,57.93h-11.1l7.62-17.73l-16.33-40.19h11.77l6.21,17.65l3.9,11.52l4.23-11.27l7.46-17.9
				L750.4,168.82L750.4,168.82z"/>
		</g>
	</g>
	<g>
		
			<radialGradient id="SVGID_1_" cx="-138.5168" cy="1190.6211" r="84.8403" fx="-159.2741" fy="1222.8364" gradientTransform="matrix(-0.286 0.9582 1.0022 0.2991 -1019.1669 -97.8563)" gradientUnits="userSpaceOnUse">
			<stop  offset="0" style="stop-color:#7D72EE"/>
			<stop  offset="0.108" style="stop-color:#8D68DE"/>
			<stop  offset="0.4955" style="stop-color:#C147A9"/>
			<stop  offset="0.7867" style="stop-color:#E13288"/>
			<stop  offset="0.9461" style="stop-color:#ED2A7C"/>
		</radialGradient>
		<circle class="st1" cx="194.22" cy="102.92" r="13.19"/>
		
			<radialGradient id="SVGID_00000124153258874743659240000010114948210702718135_" cx="242.9609" cy="811.5661" r="230.5989" gradientTransform="matrix(0.7118 0.7024 0.6621 -0.671 -552.7075 442.0651)" gradientUnits="userSpaceOnUse">
			<stop  offset="0" style="stop-color:#7D72EE"/>
			<stop  offset="0.7123" style="stop-color:#ED2A7C"/>
		</radialGradient>
		<circle style="fill:url(#SVGID_00000124153258874743659240000010114948210702718135_);" cx="157.57" cy="68.16" r="7.12"/>
		
			<radialGradient id="SVGID_00000002382061546625668270000006707970060292951174_" cx="162.286" cy="286.1958" r="233.4387" gradientTransform="matrix(1 0 0 -1 0 406)" gradientUnits="userSpaceOnUse">
			<stop  offset="0" style="stop-color:#7D72EE"/>
			<stop  offset="0.7123" style="stop-color:#ED2A7C"/>
			<stop  offset="1" style="stop-color:#CB1F89"/>
		</radialGradient>
		<path style="fill:url(#SVGID_00000002382061546625668270000006707970060292951174_);" d="M245.94,114.65
			c-21.06,0-40.65,6.31-56.98,17.14l0.03-0.03l0,0c-1.73,1.1-3.78,1.75-5.99,1.75c-6.18,0-11.19-5.01-11.19-11.19
			c0-0.03,0-0.05,0-0.08l0,0l0,0c0-11.21-9.1-20.3-20.31-20.3c-11.22,0-20.31,9.09-20.31,20.31c0,10.85,8.5,19.71,19.21,20.28l0,0
			l0.01,0.01c6.29,0.36,11.29,5.56,11.29,11.94c0,2.37-0.7,4.58-1.89,6.44l0.01,0.03c-10.81,16.32-17.11,35.89-17.11,56.93
			c0,57.01,46.22,103.23,103.23,103.23s103.23-46.22,103.23-103.23C349.17,160.87,302.95,114.65,245.94,114.65z"/>
		
			<radialGradient id="SVGID_00000134927931315126886450000012036126004124383132_" cx="201.5074" cy="741.8302" r="187.5987" gradientTransform="matrix(0.7118 0.7024 0.6621 -0.671 -518.4905 494.1254)" gradientUnits="userSpaceOnUse">
			<stop  offset="0" style="stop-color:#7D72EE"/>
			<stop  offset="0.9108" style="stop-color:#ED2A7C"/>
		</radialGradient>
		<circle style="fill:url(#SVGID_00000134927931315126886450000012036126004124383132_);" cx="138.1" cy="164.27" r="7.12"/>
	</g>
	<path class="st5" d="M206.21,179.26"/>
	<g>
		<path class="st5" d="M206.21,248.52"/>
	</g>
	<g>
		<path class="st6" d="M248.03,260.48l17.82-14.11h32.61c7.21-0.01,13.08-5.89,13.08-13.11c0-7.23-5.88-13.11-13.1-13.11l0,0h-15.85
			c-15-0.02-27.19-12.23-27.19-27.22c0-15.01,12.21-27.22,27.22-27.22v14.11c-7.23,0-13.11,5.88-13.11,13.11
			c0,7.22,5.87,13.1,13.09,13.11h15.83c15.01,0,27.22,12.21,27.22,27.22c0,14.99-12.19,27.2-27.18,27.22H248.03z"/>
	</g>
	<g>
		<path class="st6" d="M181.92,260.75h-8l-0.11-7.16v-27.9l14.11-9.41v30.36h15.17c17.96-0.03,32.58-14.68,32.58-32.65
			c0-17.99-14.64-32.64-32.63-32.65h-15.1l-13.45-14.11h28.55c25.77,0.02,46.73,20.99,46.73,46.76c0,25.74-20.94,46.71-46.67,46.76
			H181.92z"/>
	</g>
	<path class="st7" d="M324.78,281.77c-5.5-4.43-12.38-7.07-19.87-7.07c-17.99,0-32.57,15.24-32.57,34.04c0,2.74,0.32,5.41,0.9,7.96
		C293.71,310.26,311.55,297.95,324.78,281.77z"/>
	
		<radialGradient id="SVGID_00000165921100546900321380000012359239113696195465_" cx="312.7826" cy="108.2174" r="29.3478" fx="325.5597" fy="81.797" gradientTransform="matrix(1 0 0 -1 0 406)" gradientUnits="userSpaceOnUse">
		<stop  offset="0" style="stop-color:#7D72EE"/>
		<stop  offset="0.1596" style="stop-color:#8767E1"/>
		<stop  offset="0.4544" style="stop-color:#A14BBF"/>
		<stop  offset="0.8447" style="stop-color:#CB1F89"/>
		<stop  offset="1" style="stop-color:#E7287E"/>
	</radialGradient>
	<circle style="fill:url(#SVGID_00000165921100546900321380000012359239113696195465_);" cx="307.89" cy="301.7" r="29.35"/>
</g>
<g id="Layer_3" class="st9">
	<circle class="st10" cx="286.3" cy="2481.97" r="14.92"/>
</g>
</svg>
